<?xml version="1.0" encoding="utf-8"?>
<!-- Generator: Adobe Illustrator 16.0.0, SVG Export Plug-In . SVG Version: 6.00 Build 0)  -->
<!DOCTYPE svg PUBLIC "-//W3C//DTD SVG 1.1//EN" "http://www.w3.org/Graphics/SVG/1.1/DTD/svg11.dtd">
<svg version="1.1" id="Layer_1" xmlns="http://www.w3.org/2000/svg" xmlns:xlink="http://www.w3.org/1999/xlink" x="0px" y="0px"
	 width="139.727px" height="52px" viewBox="0 0 139.727 52" enable-background="new 0 0 139.727 52" xml:space="preserve">
<g>
	<rect x="0" fill="#3B2F9B" width="52" height="52"/>
	<path fill="#3B2F9B" d="M129.451,20.987h2.945l1.978,2.727l2.012-2.727h2.92l-3.462,4.722l3.884,5.251h-2.94l-2.412-3.271
		l-2.377,3.271h-2.912l3.833-5.251L129.451,20.987z M125.229,20.952h2.546v9.974h-2.546V20.952z M126.502,16.845
		c0.441,0,0.83,0.16,1.146,0.481c0.317,0.313,0.479,0.697,0.479,1.15c0,0.446-0.155,0.83-0.473,1.144
		c-0.315,0.314-0.695,0.468-1.132,0.468c-0.458,0-0.844-0.153-1.161-0.481c-0.315-0.313-0.478-0.704-0.478-1.164
		c0-0.439,0.161-0.816,0.471-1.131C125.671,17.005,126.052,16.845,126.502,16.845L126.502,16.845z M113.271,20.938h2.525v1.019
		c0.576-0.475,1.098-0.81,1.568-0.99c0.465-0.188,0.942-0.286,1.435-0.286c1.007,0,1.857,0.349,2.554,1.039
		c0.592,0.586,0.888,1.45,0.888,2.603v6.591h-2.513V26.54c0-1.192-0.056-1.981-0.161-2.371c-0.104-0.391-0.297-0.69-0.569-0.894
		c-0.268-0.209-0.599-0.307-0.991-0.307c-0.521,0-0.964,0.168-1.331,0.51c-0.364,0.335-0.624,0.802-0.766,1.401
		c-0.07,0.314-0.112,0.99-0.112,2.029v4.004h-2.525L113.271,20.938L113.271,20.938z M107.974,20.938h2.546v9.974h-2.546V20.938z
		 M109.254,16.831c0.442,0,0.823,0.16,1.146,0.48c0.317,0.314,0.472,0.705,0.472,1.151c0,0.445-0.153,0.83-0.472,1.144
		c-0.315,0.313-0.695,0.474-1.133,0.474c-0.449,0-0.837-0.16-1.154-0.48c-0.321-0.32-0.477-0.712-0.477-1.172
		c0-0.438,0.154-0.816,0.471-1.13C108.424,16.991,108.804,16.831,109.254,16.831L109.254,16.831z M102.72,17.088h2.538v13.824
		h-2.538V17.088z M101.017,22.954l-1.927,1.144c-0.366-0.404-0.718-0.69-1.077-0.851c-0.351-0.154-0.767-0.237-1.245-0.237
		c-0.865,0-1.567,0.279-2.103,0.844c-0.534,0.552-0.795,1.27-0.795,2.148c0,0.844,0.253,1.541,0.767,2.078s1.195,0.811,2.033,0.811
		c1.034,0,1.843-0.385,2.42-1.151l1.821,1.346c-0.991,1.388-2.386,2.085-4.193,2.085c-1.624,0-2.897-0.521-3.818-1.563
		c-0.915-1.039-1.38-2.252-1.38-3.646c0-0.962,0.227-1.855,0.669-2.664c0.45-0.809,1.076-1.45,1.878-1.918
		c0.804-0.461,1.695-0.697,2.688-0.697c0.914,0,1.738,0.195,2.469,0.593C99.956,21.664,100.553,22.229,101.017,22.954
		L101.017,22.954z M84.832,24.307h4.72v2.33h-4.72V24.307z M80.293,24.586c-0.168-0.551-0.492-1.005-0.97-1.353
		c-0.486-0.349-1.041-0.517-1.676-0.517c-0.688,0-1.294,0.202-1.813,0.593c-0.323,0.244-0.626,0.677-0.9,1.297L80.293,24.586z
		 M82.785,26.553l-7.956,0.021c0.12,0.703,0.429,1.269,0.929,1.688c0.498,0.418,1.14,0.629,1.913,0.621
		c0.922,0,1.716-0.328,2.377-0.984l2.09,0.984c-0.514,0.745-1.14,1.297-1.864,1.659c-0.725,0.356-1.583,0.537-2.581,0.544
		c-1.547,0-2.808-0.488-3.777-1.472c-0.978-0.983-1.471-2.218-1.479-3.703c-0.006-1.521,0.479-2.782,1.442-3.794
		c0.972-1.004,2.182-1.514,3.645-1.521c1.556,0,2.813,0.495,3.791,1.5c0.979,1.004,1.472,2.329,1.479,3.975L82.785,26.553z"/>
	<path fill="#96CF14" d="M43.108,25.997L43.108,25.997c0-3.142-2.591-5.712-5.761-5.712h-5.589v-5.54
		c0-3.137-2.591-5.707-5.76-5.707l0,0c-3.164,0-5.756,2.57-5.756,5.707v5.54h-5.59c-3.169,0-5.761,2.57-5.761,5.712l0,0
		c0,3.144,2.591,5.713,5.761,5.713h5.59v5.54c0,3.143,2.592,5.712,5.756,5.712l0,0c2.019,0,3.804-1.042,4.834-2.61
		c0.703-1.072,0.551-0.938-0.276-1.76l-2.878-2.853c-2.139-2.121-2.232-5.531-0.286-7.767l-0.011-0.011
		c-0.229-0.19-0.551-0.458-0.813-0.831c-0.743-1.042-0.875-2.868,2.67-5.34c0.188-0.129,0.447-0.087,0.577,0.099
		s0.083,0.438-0.099,0.567c-2.976,2.074-3.002,3.462-2.477,4.205c0.208,0.288,0.479,0.516,0.671,0.676l0.063,0.053
		c2.258-1.939,5.708-1.853,7.854,0.272l2.872,2.854c0.833,0.818,0.692,0.969,1.779,0.268C42.057,29.764,43.108,28,43.108,25.997
		L43.108,25.997z M30.374,28.448c1.051,0,1.904,0.847,1.904,1.889s-0.854,1.883-1.904,1.883s-1.899-0.841-1.899-1.883
		S29.322,28.448,30.374,28.448L30.374,28.448z M30.374,29.484c0.474,0,0.858,0.382,0.858,0.853c0,0.47-0.385,0.847-0.858,0.847
		s-0.858-0.377-0.858-0.847C29.516,29.866,29.9,29.484,30.374,29.484L30.374,29.484z"/>
</g>
</svg>
