<?xml version="1.0" encoding="utf-8"?>
<!-- Generator: Adobe Illustrator 16.0.0, SVG Export Plug-In . SVG Version: 6.00 Build 0)  -->
<!DOCTYPE svg PUBLIC "-//W3C//DTD SVG 1.1//EN" "http://www.w3.org/Graphics/SVG/1.1/DTD/svg11.dtd">
<svg version="1.1" id="Layer_1" xmlns="http://www.w3.org/2000/svg" xmlns:xlink="http://www.w3.org/1999/xlink" x="0px" y="0px"
	 width="139.727px" height="52px" viewBox="0 0 139.727 52" enable-background="new 0 0 139.727 52" xml:space="preserve">
<path fill="#ffffff" d="M129.451,20.987h2.944l1.979,2.727l2.012-2.727h2.92l-3.462,4.722l3.884,5.251h-2.939l-2.412-3.271
	l-2.377,3.271h-2.912l3.833-5.251L129.451,20.987z M125.229,20.952h2.546v9.974h-2.546V20.952z M126.502,16.845
	c0.44,0,0.83,0.16,1.146,0.481c0.317,0.313,0.479,0.697,0.479,1.15c0,0.446-0.155,0.83-0.474,1.144
	c-0.314,0.314-0.694,0.468-1.132,0.468c-0.458,0-0.844-0.153-1.161-0.481c-0.314-0.313-0.478-0.704-0.478-1.164
	c0-0.439,0.161-0.816,0.471-1.131C125.671,17.005,126.052,16.845,126.502,16.845L126.502,16.845z M113.271,20.938h2.525v1.019
	c0.576-0.475,1.098-0.81,1.567-0.99c0.466-0.188,0.942-0.286,1.436-0.286c1.007,0,1.857,0.349,2.554,1.039
	c0.592,0.586,0.889,1.45,0.889,2.604v6.591h-2.514V26.54c0-1.192-0.056-1.981-0.161-2.371c-0.104-0.391-0.297-0.69-0.568-0.894
	c-0.269-0.209-0.6-0.307-0.991-0.307c-0.521,0-0.964,0.168-1.331,0.51c-0.364,0.335-0.624,0.802-0.766,1.401
	c-0.07,0.314-0.112,0.99-0.112,2.029v4.004h-2.525L113.271,20.938L113.271,20.938z M107.974,20.938h2.546v9.974h-2.546V20.938z
	 M109.254,16.831c0.441,0,0.823,0.16,1.146,0.48c0.317,0.314,0.473,0.705,0.473,1.151c0,0.445-0.153,0.83-0.473,1.144
	c-0.314,0.313-0.694,0.474-1.133,0.474c-0.449,0-0.837-0.16-1.154-0.48c-0.32-0.32-0.477-0.712-0.477-1.172
	c0-0.438,0.154-0.816,0.471-1.13C108.424,16.991,108.804,16.831,109.254,16.831L109.254,16.831z M102.72,17.088h2.538v13.824h-2.538
	V17.088z M101.017,22.954l-1.927,1.144c-0.366-0.404-0.718-0.69-1.077-0.851c-0.351-0.154-0.767-0.237-1.245-0.237
	c-0.865,0-1.566,0.279-2.103,0.844c-0.534,0.552-0.795,1.27-0.795,2.148c0,0.844,0.253,1.541,0.767,2.078s1.195,0.811,2.033,0.811
	c1.034,0,1.843-0.385,2.42-1.15l1.821,1.346c-0.991,1.389-2.387,2.085-4.193,2.085c-1.624,0-2.897-0.521-3.818-1.563
	c-0.915-1.039-1.38-2.252-1.38-3.646c0-0.962,0.228-1.855,0.669-2.664c0.45-0.809,1.076-1.45,1.878-1.918
	c0.805-0.461,1.695-0.697,2.688-0.697c0.914,0,1.738,0.195,2.469,0.593C99.956,21.664,100.553,22.229,101.017,22.954L101.017,22.954
	z M84.832,24.307h4.72v2.33h-4.72V24.307z M80.293,24.586c-0.168-0.551-0.492-1.005-0.97-1.353
	c-0.486-0.349-1.041-0.517-1.677-0.517c-0.688,0-1.294,0.202-1.813,0.593c-0.323,0.244-0.626,0.677-0.9,1.297L80.293,24.586z
	 M82.785,26.553l-7.956,0.021c0.12,0.703,0.429,1.269,0.929,1.688c0.498,0.418,1.14,0.629,1.913,0.621
	c0.922,0,1.716-0.328,2.377-0.984l2.09,0.984c-0.514,0.745-1.14,1.297-1.864,1.659c-0.725,0.356-1.583,0.537-2.581,0.544
	c-1.547,0-2.808-0.488-3.776-1.472c-0.979-0.983-1.472-2.218-1.479-3.703c-0.006-1.521,0.479-2.782,1.442-3.794
	c0.972-1.004,2.182-1.514,3.645-1.521c1.557,0,2.813,0.495,3.791,1.5c0.979,1.004,1.473,2.329,1.479,3.975L82.785,26.553z"/>
<g>
	<path fill="#96CF14" d="M52.6,25.995L52.6,25.995c0-4.816-3.982-8.755-8.856-8.755h-8.59V8.748C35.154,3.939,31.169,0,26.299,0l0,0
		c-4.864,0-8.849,3.939-8.849,8.748v8.492H8.856C3.985,17.24,0,21.179,0,25.995l0,0c0,4.819,3.982,8.757,8.855,8.757h8.595v8.492
		c0,4.817,3.984,8.756,8.849,8.756l0,0c3.103,0,5.847-1.597,7.431-4.001c1.081-1.643,0.847-1.438-0.425-2.698L28.88,40.93
		c-3.288-3.251-3.431-8.479-0.439-11.905l-0.017-0.019c-0.353-0.29-0.847-0.701-1.251-1.273c-1.141-1.597-1.345-4.396,4.105-8.186
		c0.289-0.198,0.687-0.134,0.887,0.152c0.199,0.284,0.127,0.671-0.152,0.868c-4.574,3.18-4.614,5.307-3.809,6.446
		c0.32,0.442,0.738,0.791,1.033,1.036l0.097,0.082c3.47-2.973,8.774-2.842,12.074,0.417l4.415,4.374
		c1.28,1.254,1.063,1.484,2.734,0.411C50.985,31.77,52.6,29.065,52.6,25.995L52.6,25.995z"/>
	<path fill="#96CF14" d="M33.025,29.752c-1.617,0-2.92,1.299-2.92,2.896c0,1.597,1.307,2.885,2.92,2.885
		c1.615,0,2.928-1.288,2.928-2.885C35.952,31.051,34.641,29.752,33.025,29.752z M33.025,33.946c-0.727,0-1.318-0.579-1.318-1.298
		c0-0.722,0.59-1.308,1.318-1.308s1.318,0.586,1.318,1.308C34.343,33.367,33.751,33.946,33.025,33.946z"/>
</g>
</svg>
