<svg width="18" height="18" viewBox="0 0 18 18" fill="none" xmlns="http://www.w3.org/2000/svg">
<path d="M8.99984 0.666504C4.39984 0.666504 0.666504 4.39984 0.666504 8.99984C0.666504 13.5998 4.39984 17.3332 8.99984 17.3332H13.1665V15.6665H8.99984C5.38317 15.6665 2.33317 12.6165 2.33317 8.99984C2.33317 5.38317 5.38317 2.33317 8.99984 2.33317C12.6165 2.33317 15.6665 5.38317 15.6665 8.99984V10.1915C15.6665 10.8498 15.0748 11.4998 14.4165 11.4998C13.7582 11.4998 13.1665 10.8498 13.1665 10.1915V8.99984C13.1665 6.69984 11.2998 4.83317 8.99984 4.83317C6.69984 4.83317 4.83317 6.69984 4.83317 8.99984C4.83317 11.2998 6.69984 13.1665 8.99984 13.1665C10.1498 13.1665 11.1998 12.6998 11.9498 11.9415C12.4915 12.6832 13.4248 13.1665 14.4165 13.1665C16.0582 13.1665 17.3332 11.8332 17.3332 10.1915V8.99984C17.3332 4.39984 13.5998 0.666504 8.99984 0.666504ZM8.99984 11.4998C7.6165 11.4998 6.49984 10.3832 6.49984 8.99984C6.49984 7.6165 7.6165 6.49984 8.99984 6.49984C10.3832 6.49984 11.4998 7.6165 11.4998 8.99984C11.4998 10.3832 10.3832 11.4998 8.99984 11.4998Z" fill="#212121"/>
</svg>
