<svg width="16" height="20" viewBox="0 0 16 20" fill="none" xmlns="http://www.w3.org/2000/svg">
<path d="M8 10.833C9.38071 10.833 10.5 9.71372 10.5 8.33301C10.5 6.9523 9.38071 5.83301 8 5.83301C6.61929 5.83301 5.5 6.9523 5.5 8.33301C5.5 9.71372 6.61929 10.833 8 10.833Z" stroke="#212121" stroke-width="2" stroke-linecap="round" stroke-linejoin="round"/>
<path d="M8.00016 1.6665C6.23205 1.6665 4.53636 2.36888 3.28612 3.61913C2.03588 4.86937 1.3335 6.56506 1.3335 8.33317C1.3335 9.90984 1.6685 10.9415 2.5835 12.0832L8.00016 18.3332L13.4168 12.0832C14.3318 10.9415 14.6668 9.90984 14.6668 8.33317C14.6668 6.56506 13.9644 4.86937 12.7142 3.61913C11.464 2.36888 9.76827 1.6665 8.00016 1.6665V1.6665Z" stroke="#212121" stroke-width="2" stroke-linecap="round" stroke-linejoin="round"/>
</svg>
