<?xml version="1.0" encoding="utf-8"?>
<!-- Generator: Adobe Illustrator 16.0.0, SVG Export Plug-In . SVG Version: 6.00 Build 0)  -->
<!DOCTYPE svg PUBLIC "-//W3C//DTD SVG 1.1//EN" "http://www.w3.org/Graphics/SVG/1.1/DTD/svg11.dtd">
<svg version="1.1" id="Layer_1" xmlns="http://www.w3.org/2000/svg" xmlns:xlink="http://www.w3.org/1999/xlink" x="0px" y="0px"
	 width="235.172px" height="235.172px" viewBox="0 0 235.172 235.172"
	 xml:space="preserve">
<g>
	<path fill="#ccc" d="M98.504,54.767h9.216c0.385,0,0.699,0.315,0.699,0.7v9.216c0,0.385,0.316,0.7,0.7,0.7h11.199
		c0.385,0,0.7-0.315,0.7-0.7v-9.216c0-0.385,0.315-0.7,0.7-0.7h9.216c0.385,0,0.7-0.315,0.7-0.7V42.868c0-0.385-0.315-0.7-0.7-0.7
		h-9.216c-0.385,0-0.7-0.315-0.7-0.7v-9.216c0-0.385-0.315-0.7-0.7-0.7h-11.199c-0.384,0-0.7,0.315-0.7,0.7v9.216
		c0,0.385-0.314,0.7-0.699,0.7h-9.216c-0.385,0-0.7,0.315-0.7,0.7v11.199C97.804,54.452,98.119,54.767,98.504,54.767z
		 M100.604,45.668c0-0.385,0.315-0.7,0.7-0.7h9.216c0.385,0,0.699-0.315,0.699-0.7v-9.216c0-0.385,0.316-0.7,0.7-0.7h5.6
		c0.385,0,0.7,0.315,0.7,0.7v9.216c0,0.385,0.315,0.7,0.7,0.7h9.216c0.385,0,0.7,0.315,0.7,0.7v5.6c0,0.385-0.315,0.7-0.7,0.7
		h-9.216c-0.385,0-0.7,0.315-0.7,0.7v9.216c0,0.385-0.315,0.7-0.7,0.7h-5.6c-0.384,0-0.7-0.315-0.7-0.7v-9.216
		c0-0.385-0.314-0.7-0.699-0.7h-9.216c-0.385,0-0.7-0.315-0.7-0.7V45.668z"/>
	<path fill="#ccc" d="M182.366,132.187h5.911c0.247,0,0.45,0.203,0.45,0.449v5.911c0,0.247,0.201,0.449,0.448,0.449h7.184
		c0.247,0,0.449-0.202,0.449-0.449v-5.911c0-0.246,0.202-0.449,0.448-0.449h5.912c0.246,0,0.448-0.201,0.448-0.448v-7.185
		c0-0.246-0.202-0.449-0.448-0.449h-5.912c-0.246,0-0.448-0.201-0.448-0.448v-5.911c0-0.248-0.202-0.449-0.449-0.449h-7.184
		c-0.247,0-0.448,0.202-0.448,0.449v5.911c0,0.247-0.203,0.448-0.45,0.448h-5.911c-0.247,0-0.449,0.203-0.449,0.449v7.185
		C181.917,131.985,182.119,132.187,182.366,132.187z M183.713,126.351c0-0.247,0.202-0.449,0.449-0.449h5.911
		c0.247,0,0.449-0.202,0.449-0.449v-5.912c0-0.246,0.201-0.448,0.449-0.448h3.592c0.247,0,0.448,0.202,0.448,0.448v5.912
		c0,0.247,0.203,0.449,0.449,0.449h5.912c0.247,0,0.449,0.202,0.449,0.449v3.591c0,0.248-0.202,0.449-0.449,0.449h-5.912
		c-0.246,0-0.449,0.202-0.449,0.449v5.912c0,0.246-0.201,0.448-0.448,0.448h-3.592c-0.248,0-0.449-0.202-0.449-0.448v-5.912
		c0-0.247-0.202-0.449-0.449-0.449h-5.911c-0.247,0-0.449-0.201-0.449-0.449V126.351z"/>
	<path fill="#ccc" d="M27.567,214.407h-4.166c-0.174,0-0.316-0.143-0.316-0.316v-4.166c0-0.174-0.142-0.315-0.316-0.315h-5.062
		c-0.174,0-0.316,0.142-0.316,0.315v4.166c0,0.174-0.143,0.316-0.316,0.316h-4.165c-0.174,0-0.316,0.143-0.316,0.316v5.062
		c0,0.175,0.143,0.316,0.316,0.316h4.165c0.174,0,0.316,0.143,0.316,0.316v4.165c0,0.175,0.143,0.317,0.316,0.317h5.062
		c0.175,0,0.316-0.143,0.316-0.317v-4.165c0-0.174,0.143-0.316,0.316-0.316h4.166c0.174,0,0.316-0.142,0.316-0.316v-5.062
		C27.884,214.55,27.741,214.407,27.567,214.407z M26.618,218.52c0,0.174-0.143,0.316-0.316,0.316h-4.166
		c-0.174,0-0.316,0.143-0.316,0.317v4.164c0,0.175-0.142,0.316-0.315,0.316h-2.531c-0.174,0-0.316-0.142-0.316-0.316v-4.164
		c0-0.175-0.143-0.317-0.316-0.317h-4.165c-0.174,0-0.316-0.143-0.316-0.316v-2.531c0-0.173,0.143-0.316,0.316-0.316h4.165
		c0.174,0,0.316-0.142,0.316-0.315v-4.165c0-0.174,0.143-0.317,0.316-0.317h2.531c0.174,0,0.315,0.144,0.315,0.317v4.165
		c0,0.174,0.143,0.315,0.316,0.315h4.166c0.174,0,0.316,0.144,0.316,0.316V218.52z"/>
	<path fill="#ccc" d="M157.021,18.49l25.242,25.242l25.242-25.242c4.994-4.996,6.538-12.155,4.632-18.49h-2.955
		c1.017,2.824,1.204,5.882,0.561,8.794h-18.521c-0.385,0-0.856,0.273-1.05,0.606l-3.146,5.451c-0.193,0.333-0.508,0.333-0.7,0
		L177.751,0h-0.772l-4.727,8.188c-0.192,0.333-0.666,0.606-1.051,0.606h-16.418c-0.644-2.912-0.455-5.97,0.561-8.794h-2.954
		C150.482,6.334,152.025,13.494,157.021,18.49z M172.818,11.594c0.384,0,0.857-0.272,1.05-0.606l3.146-5.451
		c0.192-0.333,0.508-0.333,0.7,0l8.611,14.914c0.192,0.333,0.507,0.333,0.7,0l4.763-8.25c0.192-0.333,0.664-0.606,1.05-0.606h16.006
		c-0.765,1.786-1.863,3.461-3.318,4.917l-23.263,23.262L159.001,16.51c-1.455-1.456-2.554-3.131-3.319-4.917H172.818z"/>
	<path fill="#ccc" d="M61.198,46.084c5.299-5.298,5.299-13.92,0-19.218c-2.566-2.567-5.979-3.98-9.608-3.98
		c-3.299,0-6.417,1.167-8.884,3.305c-2.468-2.138-5.587-3.305-8.885-3.305c-3.63,0-7.043,1.414-9.609,3.98
		c-5.298,5.298-5.298,13.92,0,19.218l18.494,18.493L61.198,46.084z M25.663,28.316c2.179-2.179,5.076-3.379,8.158-3.379
		s5.979,1.2,8.159,3.379l0.726,0.726l0.725-0.726c2.18-2.179,5.076-3.379,8.159-3.379c3.082,0,5.979,1.2,8.158,3.379
		c2.891,2.89,3.912,6.942,3.09,10.665H49.269c-0.281,0-0.628,0.2-0.769,0.444l-2.306,3.993c-0.142,0.245-0.371,0.245-0.513,0
		l-6.309-10.926c-0.142-0.244-0.372-0.244-0.513,0l-3.491,6.045c-0.141,0.244-0.486,0.444-0.768,0.444H22.572
		C21.75,35.258,22.772,31.207,25.663,28.316z M23.23,41.032h12.555c0.282,0,0.628-0.2,0.77-0.444l2.306-3.994
		c0.141-0.244,0.371-0.244,0.513,0l6.309,10.927c0.142,0.244,0.371,0.244,0.513,0l3.489-6.045c0.142-0.244,0.487-0.444,0.77-0.444
		h11.728c-0.562,1.309-1.366,2.536-2.433,3.602L42.706,61.677L25.663,44.634C24.597,43.568,23.791,42.341,23.23,41.032z"/>
	<path fill="#ccc" d="M23.195,140.582l3.629-3.629l-2.651-2.652l6.7-6.7l-1.675-1.676l-6.7,6.701l-2.653-2.652l-3.628,3.629
		l-1.326-1.326L0,147.167v4.885l2.374,2.373l1.674-1.675l-3.141-3.141l2.259-2.259l3.141,3.141l1.675-1.675l-3.14-3.141l2.259-2.258
		l3.14,3.141l1.675-1.675l-3.141-3.141l2.259-2.259l3.141,3.141l1.675-1.676l-3.141-3.14l2.183-2.184l6.281,6.281L0,163.079v3.349
		l24.522-24.521L23.195,140.582z M17.893,135.277l1.952-1.953l3.629,3.629l-1.952,1.953L17.893,135.277z"/>
	<polygon fill="#ccc" points="0,171.169 0,172.082 0.457,171.625 	"/>
	<polygon fill="#ccc" points="0,156.568 0,156.798 0.114,156.683 	"/>
	<path fill="#ccc" d="M134.896,133.753v-8.495c3.245-0.846,5.648-3.802,5.648-7.307c0-4.163-3.387-7.548-7.549-7.548
		c-4.161,0-7.548,3.385-7.548,7.548c0,3.505,2.404,6.461,5.649,7.307v8.495c0,4.852-3.948,8.8-8.801,8.8
		c-4.852,0-8.798-3.948-8.798-8.8v-17.052c6.827-0.93,12.105-6.794,12.105-13.873V90.722c0-1.048-0.852-1.899-1.898-1.899h-6.053
		c-1.048,0-1.898,0.851-1.898,1.899c0,1.048,0.851,1.899,1.898,1.899h4.153v10.208c0,5.627-4.578,10.208-10.206,10.208
		c-5.629,0-10.208-4.58-10.208-10.208V92.621h4.154c1.048,0,1.898-0.851,1.898-1.899c0-1.048-0.851-1.899-1.898-1.899h-6.053
		c-1.049,0-1.899,0.851-1.899,1.899v12.106c0,7.078,5.279,12.943,12.107,13.873v17.052c0,6.946,5.649,12.598,12.596,12.598
		S134.896,140.699,134.896,133.753z M129.247,117.951c0-2.069,1.682-3.75,3.75-3.75c2.067,0,3.75,1.681,3.75,3.75
		c0,2.066-1.683,3.748-3.75,3.748C130.929,121.699,129.247,120.018,129.247,117.951z"/>
	<path fill="#ccc" d="M103.725,194.056c1.103-1.876,0.849-4.334-0.76-5.941c-1.908-1.908-5.014-1.907-6.923,0.001
		c-1.907,1.908-1.908,5.014,0,6.922c1.607,1.608,4.065,1.861,5.94,0.761l3.896,3.896c2.227,2.225,2.227,5.846,0.001,8.071
		c-2.225,2.225-5.845,2.224-8.069-0.002l-7.821-7.82c2.704-3.556,2.436-8.667-0.811-11.912l-5.552-5.552
		c-0.48-0.48-1.262-0.48-1.741,0l-2.775,2.775c-0.481,0.48-0.481,1.261,0,1.741c0.48,0.48,1.261,0.48,1.741,0l1.904-1.904
		l4.681,4.681c2.581,2.581,2.582,6.78,0.001,9.361s-6.781,2.581-9.361,0.001l-4.683-4.682l1.906-1.905
		c0.48-0.48,0.48-1.261-0.001-1.741c-0.48-0.481-1.26-0.481-1.741,0l-2.775,2.776c-0.48,0.48-0.48,1.26,0,1.741l5.552,5.552
		c3.246,3.246,8.356,3.515,11.914,0.81l7.82,7.819c3.185,3.187,8.367,3.188,11.554,0.002c3.185-3.186,3.186-8.369,0-11.555
		L103.725,194.056z M101.224,193.295c-0.949,0.949-2.491,0.949-3.439,0.001s-0.948-2.491,0.001-3.439
		c0.947-0.948,2.49-0.948,3.438,0C102.173,190.804,102.171,192.348,101.224,193.295z"/>
	<path fill="#ccc" d="M59.106,98.744c-6.239,0-11.316,5.076-11.316,11.315v31.731c0,6.239,5.077,11.315,11.316,11.315
		s11.315-5.076,11.315-11.315V110.06C70.422,103.82,65.346,98.744,59.106,98.744z M67.622,125.925v15.866
		c0,1.498-0.393,2.903-1.074,4.128c-0.165,0.294-0.349,0.575-0.545,0.847c-0.047,0.065-0.094,0.128-0.143,0.191
		c-0.214,0.277-0.44,0.547-0.687,0.797c-0.009,0.009-0.018,0.018-0.027,0.027c0.239-0.671,0.376-1.39,0.376-2.141v-19.716H50.59
		V110.06c0-4.695,3.82-8.516,8.517-8.516c4.695,0,8.516,3.82,8.516,8.516V125.925z"/>
	<path fill="#ccc" d="M137.625,158.986l-16.17,16.171c-3.181,3.18-3.181,8.354,0,11.532c3.18,3.181,8.353,3.181,11.532,0.001
		l16.171-16.171c3.18-3.18,3.18-8.354,0-11.532C145.978,155.808,140.805,155.808,137.625,158.986z M147.731,169.093l-8.086,8.086
		l-8.085,8.085c-0.763,0.763-1.68,1.279-2.65,1.556c-0.234,0.066-0.471,0.116-0.71,0.154c-0.057,0.009-0.112,0.017-0.169,0.024
		c-0.251,0.033-0.504,0.054-0.757,0.057c-0.009,0-0.019,0-0.027,0c0.463-0.221,0.899-0.518,1.282-0.9l10.047-10.047l-7.609-7.608
		l8.085-8.085c2.393-2.393,6.287-2.393,8.68,0S150.124,166.7,147.731,169.093z"/>
	<path fill="#ccc" d="M177.938,65.383c-7.422,14.02-27.328,11.284-22.229,33.044c0.699-0.412,1.425-0.887,2.178-1.417
		c0.821-0.566,1.632-1.252,2.488-1.929c0.124-0.106,0.252-0.228,0.377-0.336c0.011-0.016,0.02-0.031,0.029-0.046
		c0.168-0.238,0.316-0.497,0.419-0.784c0.104-0.284,0.273-0.548,0.333-0.851c0.076-0.3,0.15-0.598,0.224-0.892
		c0.046-0.3,0.06-0.603,0.092-0.895c0.042-0.298,0.051-0.58,0.023-0.846c-0.016-0.269-0.016-0.528-0.017-0.773
		c0-0.243-0.062-0.475-0.078-0.68c-0.025-0.203-0.049-0.381-0.067-0.527c-0.033-0.295-0.039-0.467-0.039-0.467
		s0.089,0.147,0.224,0.411c0.065,0.133,0.146,0.294,0.236,0.479c0.083,0.19,0.215,0.382,0.271,0.636
		c0.067,0.251,0.142,0.528,0.204,0.826c0.079,0.3,0.133,0.619,0.114,0.95c-0.006,0.331,0.032,0.677-0.016,1.024
		c-0.061,0.285-0.121,0.572-0.183,0.856c0.967-0.89,1.926-1.813,2.838-2.801c0.343-0.347,0.651-0.716,0.98-1.075
		c0.165-0.674,0.292-1.402,0.344-2.145c0.13-1.43,0.03-2.88-0.153-3.961c-0.095-0.543-0.189-0.989-0.289-1.301
		c-0.114-0.312-0.167-0.497-0.167-0.497s0.13,0.143,0.335,0.404c0.181,0.281,0.457,0.696,0.667,1.237
		c0.444,1.076,0.73,2.64,0.597,4.201c-0.024,0.24-0.068,0.476-0.105,0.713c0.047-0.054,0.101-0.107,0.146-0.161
		c0.727-0.894,1.488-1.741,2.148-2.622c0.544-0.702,1.052-1.392,1.535-2.067c0.035-0.187,0.066-0.374,0.104-0.561
		c0.083-0.288,0.104-0.583,0.122-0.874c0.014-0.291,0.084-0.578,0.053-0.856c-0.013-0.278-0.004-0.551-0.004-0.811
		c-0.038-0.25-0.06-0.493-0.08-0.72c-0.02-0.456-0.129-0.86-0.171-1.132c-0.048-0.275-0.063-0.438-0.063-0.438
		s0.096,0.131,0.242,0.371c0.125,0.254,0.39,0.557,0.536,1.036c0.086,0.231,0.18,0.488,0.264,0.766
		c0.053,0.278,0.108,0.574,0.146,0.883c0.038,0.2,0.043,0.407,0.041,0.616c0.257-0.391,0.503-0.772,0.733-1.142
		c0.452-0.759,0.865-1.46,1.216-2.095c0.322-0.644,0.632-1.203,0.842-1.682c0.454-0.949,0.682-1.52,0.682-1.52
		s-0.013,0.151-0.036,0.436c-0.028,0.285-0.036,0.712-0.141,1.237c-0.077,0.535-0.215,1.173-0.404,1.902
		c-0.202,0.724-0.454,1.537-0.797,2.398c-0.342,0.86-0.74,1.785-1.239,2.721c-0.495,0.938-1.03,1.927-1.681,2.882
		c-1.243,1.956-2.805,3.876-4.489,5.682c-0.86,0.885-1.756,1.735-2.67,2.54c-0.902,0.817-1.883,1.518-2.82,2.204
		c-1.267,0.879-2.542,1.62-3.779,2.209C180.732,103.152,182.91,75.488,177.938,65.383z"/>
	<path fill="#ccc" d="M90.901,5.066c-0.495,0.938-1.031,1.927-1.682,2.882c-1.242,1.956-2.805,3.876-4.488,5.682
		c-0.86,0.885-1.757,1.735-2.671,2.54c-0.901,0.817-1.884,1.518-2.819,2.204c-1.268,0.879-2.543,1.62-3.78,2.209
		C91.058,23.335,96.977,11.17,97.548,0H92.92c-0.198,0.71-0.445,1.503-0.78,2.345C91.798,3.205,91.4,4.129,90.901,5.066z"/>
	<path fill="#ccc" d="M89.858,1.312c0.052,0.278,0.107,0.574,0.146,0.883c0.038,0.2,0.043,0.407,0.04,0.616
		c0.257-0.391,0.503-0.772,0.733-1.142C91.135,1.071,91.455,0.521,91.752,0h-2.404c0.091,0.155,0.18,0.331,0.246,0.546
		C89.681,0.777,89.773,1.034,89.858,1.312z"/>
	<path fill="#ccc" d="M73.164,19.869c0.699-0.412,1.426-0.887,2.179-1.417c0.82-0.566,1.631-1.252,2.488-1.929
		c0.124-0.106,0.251-0.228,0.377-0.336c0.011-0.016,0.019-0.031,0.028-0.046c0.169-0.238,0.316-0.497,0.419-0.784
		c0.105-0.284,0.274-0.548,0.334-0.851c0.075-0.3,0.15-0.598,0.224-0.892c0.045-0.3,0.06-0.603,0.092-0.895
		c0.041-0.298,0.051-0.58,0.022-0.846c-0.015-0.269-0.015-0.528-0.017-0.773c0-0.243-0.062-0.475-0.077-0.68
		c-0.025-0.203-0.049-0.381-0.067-0.527c-0.033-0.295-0.04-0.467-0.04-0.467s0.089,0.147,0.224,0.411
		c0.066,0.133,0.146,0.294,0.236,0.479c0.083,0.19,0.216,0.382,0.272,0.636c0.067,0.251,0.141,0.528,0.202,0.826
		c0.08,0.3,0.134,0.619,0.116,0.95c-0.007,0.331,0.032,0.677-0.017,1.024c-0.061,0.285-0.12,0.572-0.182,0.856
		c0.966-0.89,1.926-1.813,2.837-2.801c0.343-0.347,0.652-0.716,0.98-1.075c0.165-0.674,0.293-1.402,0.344-2.145
		c0.13-1.43,0.03-2.88-0.153-3.961c-0.095-0.543-0.188-0.989-0.288-1.301c-0.114-0.312-0.167-0.497-0.167-0.497
		s0.129,0.143,0.334,0.404c0.182,0.28,0.457,0.696,0.666,1.237c0.445,1.076,0.732,2.64,0.598,4.201
		c-0.023,0.241-0.068,0.476-0.105,0.713c0.048-0.054,0.101-0.107,0.147-0.161c0.727-0.894,1.488-1.741,2.147-2.622
		c0.545-0.702,1.052-1.392,1.535-2.067c0.035-0.187,0.065-0.374,0.105-0.561c0.082-0.288,0.103-0.583,0.121-0.874
		c0.014-0.291,0.084-0.578,0.053-0.856c-0.013-0.278-0.004-0.551-0.004-0.811c-0.037-0.25-0.06-0.493-0.08-0.72
		C89.038,0.45,88.998,0.211,88.957,0h-8.736C74.623,3.867,70.514,8.557,73.164,19.869z"/>
	<path fill="#ccc" d="M194.39,221.987c-4.501,0-8.759,1.593-12.126,4.511c-3.368-2.918-7.624-4.511-12.127-4.511
		c-4.954,0-9.611,1.93-13.115,5.433c-2.239,2.239-3.783,4.913-4.636,7.752h2.955c0.757-2.107,1.974-4.086,3.66-5.772
		c2.975-2.975,6.93-4.612,11.136-4.612c4.207,0,8.162,1.638,11.137,4.612l0.99,0.99l0.989-0.99c2.975-2.975,6.93-4.612,11.137-4.612
		c4.206,0,8.161,1.638,11.137,4.612c1.687,1.687,2.903,3.665,3.661,5.772h2.953c-0.853-2.839-2.396-5.513-4.635-7.752
		C204.003,223.917,199.345,221.987,194.39,221.987z"/>
	<path fill="#ccc" d="M177.015,235.1l-0.041,0.072h0.782l-0.041-0.072C177.522,234.767,177.207,234.767,177.015,235.1z"/>
	<path fill="#ccc" d="M95.394,221.987c-3.566,6.737-10.015,9.607-15.187,13.185h8.753c-0.032-0.164-0.063-0.313-0.082-0.433
		c-0.047-0.274-0.062-0.438-0.062-0.438s0.096,0.131,0.241,0.37c0.07,0.143,0.184,0.305,0.296,0.5h2.392
		c0.082-0.145,0.173-0.298,0.249-0.437c0.323-0.644,0.632-1.202,0.843-1.682c0.453-0.949,0.681-1.521,0.681-1.521
		s-0.012,0.152-0.036,0.437c-0.027,0.284-0.036,0.712-0.141,1.237c-0.076,0.534-0.214,1.173-0.404,1.902
		c-0.005,0.021-0.014,0.043-0.019,0.063h4.629C97.811,230.063,96.955,225.159,95.394,221.987z"/>
	<path fill="#ccc" d="M42.59,168.169c3.009,9.777-7.316,17.605,4.932,25.204c0.131-0.508,0.245-1.055,0.347-1.641
		c0.116-0.632,0.173-1.314,0.255-2.014c0.008-0.105,0.012-0.219,0.02-0.325c-0.003-0.013-0.007-0.023-0.009-0.034
		c-0.031-0.186-0.082-0.371-0.166-0.549c-0.082-0.178-0.125-0.375-0.236-0.54c-0.104-0.171-0.204-0.342-0.305-0.51
		c-0.116-0.157-0.248-0.301-0.366-0.449c-0.117-0.155-0.241-0.287-0.375-0.396c-0.13-0.115-0.248-0.233-0.361-0.345
		c-0.109-0.11-0.243-0.188-0.344-0.274c-0.104-0.081-0.197-0.151-0.271-0.21c-0.15-0.119-0.231-0.194-0.231-0.194
		s0.107,0.026,0.29,0.085c0.09,0.03,0.198,0.068,0.325,0.11c0.125,0.049,0.271,0.076,0.414,0.166
		c0.146,0.084,0.305,0.177,0.469,0.284c0.173,0.101,0.343,0.222,0.485,0.381c0.148,0.153,0.324,0.293,0.46,0.474
		c0.103,0.157,0.206,0.316,0.308,0.474c0.035-0.846,0.052-1.705,0.017-2.571c-0.002-0.313-0.03-0.624-0.043-0.937
		c-0.232-0.383-0.507-0.772-0.821-1.135c-0.594-0.711-1.3-1.326-1.876-1.736c-0.291-0.205-0.537-0.365-0.725-0.462
		c-0.195-0.09-0.303-0.15-0.303-0.15s0.123,0.007,0.337,0.031c0.21,0.046,0.525,0.109,0.867,0.261
		c0.694,0.289,1.537,0.87,2.188,1.644c0.099,0.12,0.187,0.248,0.277,0.373c-0.003-0.047-0.003-0.095-0.006-0.141
		c-0.076-0.738-0.115-1.473-0.216-2.175c-0.072-0.568-0.155-1.114-0.243-1.643c-0.069-0.101-0.141-0.201-0.208-0.304
		c-0.094-0.169-0.218-0.313-0.343-0.453c-0.126-0.14-0.226-0.303-0.366-0.414c-0.133-0.122-0.253-0.251-0.371-0.369
		c-0.132-0.096-0.253-0.197-0.366-0.292c-0.216-0.198-0.45-0.332-0.593-0.438c-0.148-0.104-0.229-0.172-0.229-0.172
		s0.104,0.017,0.279,0.059c0.172,0.059,0.431,0.077,0.717,0.229c0.146,0.066,0.304,0.141,0.47,0.229
		c0.15,0.103,0.311,0.213,0.47,0.336c0.108,0.074,0.205,0.166,0.299,0.263c-0.061-0.295-0.123-0.582-0.187-0.855
		c-0.14-0.553-0.271-1.06-0.401-1.51c-0.146-0.44-0.26-0.837-0.383-1.151c-0.226-0.64-0.383-1.003-0.383-1.003
		s0.064,0.074,0.183,0.215c0.117,0.142,0.309,0.342,0.501,0.629c0.208,0.278,0.437,0.633,0.683,1.051
		c0.237,0.423,0.494,0.908,0.729,1.457c0.237,0.548,0.478,1.15,0.677,1.806c0.202,0.654,0.408,1.349,0.547,2.081
		c0.325,1.458,0.489,3.046,0.545,4.638c0.011,0.796-0.01,1.592-0.06,2.376c-0.039,0.783-0.167,1.55-0.281,2.29
		c-0.177,0.979-0.421,1.897-0.717,2.73C61.086,184.117,49.465,170.51,42.59,168.169z"/>
	<path fill="#ccc" d="M209.207,162.374c-1.208-1.507-3.02-2.106-5.436-2.106c-1.798,0-3.919,0.29-6.026,0.895
		c-1.811,0.31-3.313,0.604-4.831,0.604c-1.501,0-3.022-0.295-4.816-0.604c-2.123-0.604-4.228-0.895-6.041-0.895
		c-2.418,0-4.229,0.6-5.729,1.808c-3.919,4.232,0.295,17.502,1.501,21.115c-0.295,1.812-1.206,7.852-0.604,12.08
		c0.309,0,2.119,13.273,5.729,13.273c3.624,0,5.145-11.771,5.145-12.375c0.588-3.923,3.005-6.629,4.816-6.629
		c1.808,0.294,4.522,2.706,4.831,6.629c0,0.604,1.503,12.375,5.127,12.375c3.919,0,5.73-13.273,5.438-13.273
		c0.603-4.229-0.311-10.269-0.604-11.771C208.912,179.871,213.125,166.602,209.207,162.374z M204.979,182.896v0.604
		c0,0,1.209,6.938,0.604,11.166c-0.604,3.61-1.812,8.144-2.711,9.959c-0.607-1.521-1.812-5.146-2.106-8.754
		c-0.604-5.138-3.934-9.057-7.852-9.352c-3.92,0.295-7.233,4.522-7.543,9.352c-0.295,3.608-1.501,6.938-2.108,8.754
		c-0.911-1.815-2.12-6.349-2.706-9.959c-0.604-4.228,0.586-11.166,0.586-11.166v-0.604c-2.4-6.339-4.521-16.294-2.4-18.404
		c0.602-0.909,1.814-1.204,3.314-1.204c1.504,0,3.624,0.295,5.438,0.895c1.547,0.266,3.107,0.486,4.667,0.553
		c-3.322,3.436-2.902,8.235-0.647,13.439c-1.32-10.176,6.333-13.907,6.836-13.992c1.812-0.6,3.915-0.895,5.422-0.895
		c1.518,0,2.726,0.295,3.625,1.204C209.207,166.911,207.101,176.557,204.979,182.896z"/>
	<path fill="#ccc" d="M5.666,102.563c2.548-2.547-4.656-11.888-5.08-12.313C0.37,89.96,0.18,89.665,0,89.369v4.625
		c1.47,2.159,2.486,4.306,3.131,5.597C2.361,99.336,1.246,98.803,0,98.123v3.638C2.39,102.908,4.661,103.568,5.666,102.563z"/>
	<path fill="#ccc" d="M7.365,83.472c0.425,0.423,9.753,7.64,12.3,5.093c2.754-2.754-5.301-13.356-5.508-13.149
		c-2.547-3.395-7.434-6.998-8.695-7.847C4.603,65.853,2.554,61.873,0,58.322v5.12c1.163,1.9,2.245,3.859,3.121,5.617l0.424,0.424
		c0,0,5.727,4.027,8.273,7.423c2.111,2.961,4.449,6.996,5.093,8.904c-1.496-0.643-4.889-2.344-7.633-4.672
		C6.335,78.815,2.831,77.973,0,78.672v3.166C1.728,81.137,4.782,81.266,7.365,83.472z"/>
	<path fill="#ccc" d="M228.924,161.377l-1.768,1.769l-6.805-6.803l-5.862,5.86l15.284,15.284l5.398-5.398v-0.927l-6.341-6.34
		l1.768-1.769l3.978,3.978l0.596-0.597v-3.349l-0.596,0.596l-6.281-6.282l2.184-2.183l3.141,3.141l1.553-1.553v-0.243l-3.02-3.02
		l2.26-2.258l0.76,0.76v-4.87l-10.226,10.226L228.924,161.377z M232.285,171.625l-2.512,2.513l-11.935-11.935l2.513-2.512
		L232.285,171.625z"/>
	<path fill="#ccc" d="M233.638,91.958c0.561,0.659,1.068,1.344,1.534,2.027v-4.627c-1.771-2.927-1.837-5.996-0.683-7.15
		c0.193-0.139,0.424-0.262,0.683-0.367v-3.167c-1.047,0.26-2.005,0.724-2.804,1.411C229.821,83.046,230.462,88.347,233.638,91.958z"
		/>
	<path fill="#ccc" d="M226.849,51.666c-1.907-0.209-3.602,0.642-5.3,2.34c-1.264,1.263-2.551,2.958-3.606,4.864
		c-1.056,1.491-1.904,2.753-2.971,3.82c-1.055,1.054-2.331,1.917-3.809,2.959c-1.917,1.067-3.601,2.343-4.875,3.617
		c-1.699,1.699-2.55,3.392-2.756,5.296c0.22,5.728,12.508,12.093,15.895,13.784c1.065,1.481,4.67,6.366,8.064,8.914
		c0.132-0.131,4.041,2.749,7.681,4.497V98.12c-1.854-1.013-4.002-2.355-5.764-3.625c-3.396-2.546-7.436-8.259-7.436-8.259
		l-0.425-0.424c-6.142-2.768-14.627-8.275-14.621-11.247c-0.216-1.063,0.429-2.122,1.483-3.177c1.058-1.056,2.754-2.34,4.45-3.192
		c1.274-0.901,2.525-1.841,3.668-2.892c0.079,4.75,3.748,7.828,8.989,9.901c-8.078-6.224-5.321-14.225-5.028-14.638
		c0.852-1.695,2.123-3.38,3.182-4.44c1.066-1.065,2.122-1.706,3.395-1.7c2.092,0.301,5.335,4.482,8.106,9.004v-5.118
		C232.669,54.835,229.681,51.773,226.849,51.666z"/>
</g>
</svg>
